<?xml version="1.0" encoding="UTF-8" standalone="no"?>
<!-- Created with Inkscape (http://www.inkscape.org/) -->

<svg
   version="1.1"
   id="svg2"
   width="1000"
   height="666.66669"
   viewBox="0 0 1000 666.66669"
   sodipodi:docname="background-hero.svg"
   inkscape:version="1.2.2 (b0a8486541, 2022-12-01)"
   xmlns:inkscape="http://www.inkscape.org/namespaces/inkscape"
   xmlns:sodipodi="http://sodipodi.sourceforge.net/DTD/sodipodi-0.dtd"
   xmlns="http://www.w3.org/2000/svg"
   xmlns:svg="http://www.w3.org/2000/svg">
  <defs
     id="defs6">
    <clipPath
       clipPathUnits="userSpaceOnUse"
       id="clipPath20">
      <path
         d="M 0,0 H 750 V 500 H 0 Z"
         id="path18" />
    </clipPath>
    <pattern
       patternTransform="translate(-561.7324,419.9512)"
       patternUnits="userSpaceOnUse"
       x="0"
       y="0"
       width="12.9942"
       height="12.9942"
       id="pattern36">
      <g
         transform="translate(7.9941,6.497)"
         id="g34">
        <path
           d="m 0,0 c 0,-0.827 -0.67,-1.497 -1.497,-1.497 -0.827,0 -1.497,0.67 -1.497,1.497 0,0.827 0.67,1.497 1.497,1.497 C -0.67,1.497 0,0.827 0,0"
           style="fill:#000000;fill-opacity:1;fill-rule:nonzero;stroke:none"
           id="path32" />
      </g>
    </pattern>
    <clipPath
       clipPathUnits="userSpaceOnUse"
       id="clipPath74">
      <path
         d="M 0,0 H 750 V 500 H 0 Z"
         id="path72" />
    </clipPath>
    <clipPath
       clipPathUnits="userSpaceOnUse"
       id="clipPath96">
      <path
         d="M 0,0 H 750 V 500 H 0 Z"
         id="path94" />
    </clipPath>
    <clipPath
       clipPathUnits="userSpaceOnUse"
       id="clipPath666">
      <path
         d="M 0,0 H 750 V 500 H 0 Z"
         id="path664" />
    </clipPath>
    <clipPath
       clipPathUnits="userSpaceOnUse"
       id="clipPath770">
      <path
         d="M 155.997,422.824 H 362.096 V 184.841 H 155.997 Z"
         id="path768" />
    </clipPath>
    <clipPath
       clipPathUnits="userSpaceOnUse"
       id="clipPath786">
      <path
         d="m 524.48,222.195 h 64.699 V 147.487 H 524.48 Z"
         id="path784" />
    </clipPath>
    <clipPath
       clipPathUnits="userSpaceOnUse"
       id="clipPath3186">
      <path
         d="m 111.124,367.445 h 8.234 v -8.234 h -8.234 z"
         id="path3184" />
    </clipPath>
    <clipPath
       clipPathUnits="userSpaceOnUse"
       id="clipPath3202">
      <path
         d="m 624.479,187.916 h 8.234 v -8.234 h -8.234 z"
         id="path3200" />
    </clipPath>
  </defs>
  <sodipodi:namedview
     id="namedview4"
     pagecolor="#ffffff"
     bordercolor="#000000"
     borderopacity="0.25"
     inkscape:showpageshadow="2"
     inkscape:pageopacity="0.0"
     inkscape:pagecheckerboard="0"
     inkscape:deskcolor="#d1d1d1"
     showgrid="false"
     inkscape:zoom="1.1775"
     inkscape:cx="488.32272"
     inkscape:cy="336.73036"
     inkscape:window-width="1920"
     inkscape:window-height="1043"
     inkscape:window-x="0"
     inkscape:window-y="0"
     inkscape:window-maximized="1"
     inkscape:current-layer="g10" />
  <g
     id="g10"
     inkscape:groupmode="layer"
     inkscape:label="Page 1"
     transform="matrix(1.3333333,0,0,-1.3333333,0,666.66667)">
    <g
       id="g90"
       style="display:inline">
      <g
         id="g92"
         clip-path="url(#clipPath96)">
        <g
           id="g922"
           transform="translate(155.4497,516.2471)">
          <path
             d="m 0,0 -23.151,-84.455 -85.56,-13.285 -47.43,-51.243 -55.472,-4.886"
             style="fill:none;stroke:#000000;stroke-width:0.5;stroke-linecap:butt;stroke-linejoin:miter;stroke-miterlimit:10;stroke-dasharray:none;stroke-opacity:1"
             id="path924" />
        </g>
        <g
           id="g926"
           transform="translate(132.2988,431.792)">
          <path
             d="M 0,0 174.167,73.548"
             style="fill:none;stroke:#000000;stroke-width:0.5;stroke-linecap:butt;stroke-linejoin:miter;stroke-miterlimit:10;stroke-dasharray:none;stroke-opacity:1"
             id="path928" />
        </g>
        <g
           id="g930"
           transform="translate(46.7388,418.5068)">
          <path
             d="M 0,0 2.905,-79.711"
             style="fill:none;stroke:#000000;stroke-width:0.5;stroke-linecap:butt;stroke-linejoin:miter;stroke-miterlimit:10;stroke-dasharray:none;stroke-opacity:1"
             id="path932" />
        </g>
        <g
           id="g934"
           transform="translate(-0.6914,367.2642)">
          <path
             d="M 0,0 55.554,133.8"
             style="fill:none;stroke:#000000;stroke-width:0.5;stroke-linecap:butt;stroke-linejoin:miter;stroke-miterlimit:10;stroke-dasharray:none;stroke-opacity:1"
             id="path936" />
        </g>
        <g
           id="g938"
           transform="translate(132.2988,431.792)">
          <path
             d="M 0,0 -77.437,69.272"
             style="fill:none;stroke:#000000;stroke-width:0.5;stroke-linecap:butt;stroke-linejoin:miter;stroke-miterlimit:10;stroke-dasharray:none;stroke-opacity:1"
             id="path940" />
        </g>
        <g
           id="g942"
           transform="translate(46.7388,418.5068)">
          <path
             d="M 0,0 8.124,82.557"
             style="fill:none;stroke:#000000;stroke-width:0.5;stroke-linecap:butt;stroke-linejoin:miter;stroke-miterlimit:10;stroke-dasharray:none;stroke-opacity:1"
             id="path944" />
        </g>
        <g
           id="g946"
           transform="translate(49.6436,338.7959)">
          <path
             d="M 0,0 -50.335,28.468"
             style="fill:none;stroke:#000000;stroke-width:0.5;stroke-linecap:butt;stroke-linejoin:miter;stroke-miterlimit:10;stroke-dasharray:none;stroke-opacity:1"
             id="path948" />
        </g>
        <g
           id="g950"
           transform="translate(-0.6914,485.3804)">
          <path
             d="M 0,0 47.43,-66.874"
             style="fill:none;stroke:#000000;stroke-width:0.5;stroke-linecap:butt;stroke-linejoin:miter;stroke-miterlimit:10;stroke-dasharray:none;stroke-opacity:1"
             id="path952" />
        </g>
        <g
           id="g954"
           transform="translate(132.2988,431.792)">
          <path
             d="M 0,0 -82.655,-92.996"
             style="fill:none;stroke:#000000;stroke-width:0.5;stroke-linecap:butt;stroke-linejoin:miter;stroke-miterlimit:10;stroke-dasharray:none;stroke-opacity:1"
             id="path956" />
        </g>
        <g
           id="g958"
           transform="translate(49.6436,338.7959)">
          <path
             d="M 0,0 -57.411,-56.137"
             style="fill:none;stroke:#000000;stroke-width:0.5;stroke-linecap:butt;stroke-linejoin:miter;stroke-miterlimit:10;stroke-dasharray:none;stroke-opacity:1"
             id="path960" />
        </g>
        <g
           id="g962"
           transform="translate(54.1738,338.7959)">
          <path
             d="m 0,0 c 0,-2.502 -2.028,-4.53 -4.53,-4.53 -2.503,0 -4.531,2.028 -4.531,4.53 0,2.502 2.028,4.53 4.531,4.53 C -2.028,4.53 0,2.502 0,0"
             style="fill:#000000;fill-opacity:1;fill-rule:nonzero;stroke:none"
             id="path964" />
        </g>
        <g
           id="g966"
           transform="translate(134.3413,431.792)">
          <path
             d="m 0,0 c 0,-1.128 -0.915,-2.042 -2.042,-2.042 -1.128,0 -2.043,0.914 -2.043,2.042 0,1.128 0.915,2.042 2.043,2.042 C -0.915,2.042 0,1.128 0,0"
             style="fill:#000000;fill-opacity:1;fill-rule:nonzero;stroke:none"
             id="path968" />
        </g>
        <g
           id="g970"
           transform="translate(32.6953,441.7661)">
          <path
             d="m 0,0 c 0,-1.355 -1.099,-2.454 -2.454,-2.454 -1.355,0 -2.453,1.099 -2.453,2.454 0,1.355 1.098,2.454 2.453,2.454 C -1.099,2.454 0,1.355 0,0"
             style="fill:#000000;fill-opacity:1;fill-rule:nonzero;stroke:none"
             id="path972" />
        </g>
        <g
           id="g982"
           transform="translate(565.5439,374.9932)">
          <path
             d="m 0,0 c 0,-0.836 -0.678,-1.515 -1.515,-1.515 -0.837,0 -1.514,0.679 -1.514,1.515 0,0.836 0.677,1.515 1.514,1.515 C -0.678,1.515 0,0.836 0,0"
             style="fill:#000000;fill-opacity:1;fill-rule:nonzero;stroke:none"
             id="path984" />
        </g>
        <g
           id="g986"
           transform="translate(82.7056,444.2197)">
          <path
             d="m 0,0 c 0,-0.836 -0.678,-1.515 -1.515,-1.515 -0.836,0 -1.514,0.679 -1.514,1.515 0,0.836 0.678,1.515 1.514,1.515 C -0.678,1.515 0,0.836 0,0"
             style="fill:#000000;fill-opacity:1;fill-rule:nonzero;stroke:none"
             id="path988" />
        </g>
        <g
           id="g990"
           transform="translate(750,407.4233)">
          <path
             d="m 0,0 c 0,-1.946 -1.578,-3.524 -3.524,-3.524 -1.947,0 -3.525,1.578 -3.525,3.524 0,1.947 1.578,3.524 3.525,3.524 C -1.578,3.524 0,1.947 0,0"
             style="fill:#000000;fill-opacity:1;fill-rule:nonzero;stroke:none"
             id="path992" />
        </g>
        <g
           id="g994"
           transform="translate(586.3975,394.2241)">
          <path
             d="m 0,0 c 0,-0.836 -0.679,-1.515 -1.515,-1.515 -0.837,0 -1.514,0.679 -1.514,1.515 0,0.837 0.677,1.515 1.514,1.515 C -0.679,1.515 0,0.837 0,0"
             style="fill:#000000;fill-opacity:1;fill-rule:nonzero;stroke:none"
             id="path996" />
        </g>
        <g
           id="g1002"
           transform="translate(81.1909,403.6162)">
          <path
             d="m 0,0 c 0,-1.456 -1.18,-2.636 -2.636,-2.636 -1.455,0 -2.635,1.18 -2.635,2.636 0,1.456 1.18,2.636 2.635,2.636 C -1.18,2.636 0,1.456 0,0"
             style="fill:#000000;fill-opacity:1;fill-rule:nonzero;stroke:none"
             id="path1004" />
        </g>
        <g
           id="g1006"
           transform="translate(126.9888,480.5498)">
          <path
             d="m 0,0 c 0,-1.183 -0.959,-2.142 -2.142,-2.142 -1.183,0 -2.141,0.959 -2.141,2.142 0,1.183 0.958,2.142 2.141,2.142 C -0.959,2.142 0,1.183 0,0"
             style="fill:#000000;fill-opacity:1;fill-rule:nonzero;stroke:none"
             id="path1008" />
        </g>
        <g
           id="g1010"
           transform="translate(187.2832,466.8765)">
          <path
             d="m 0,0 c 0,-1.456 -1.18,-2.636 -2.636,-2.636 -1.455,0 -2.635,1.18 -2.635,2.636 0,1.456 1.18,2.636 2.635,2.636 C -1.18,2.636 0,1.456 0,0"
             style="fill:#000000;fill-opacity:1;fill-rule:nonzero;stroke:none"
             id="path1012" />
        </g>
        <g
           id="g1022"
           transform="translate(616.8594,343.3262)">
          <path
             d="m 0,0 c 0,1.312 -1.062,2.375 -2.374,2.375 -1.312,0 -2.374,-1.063 -2.374,-2.375 0,-1.311 1.062,-2.374 2.374,-2.374 C -1.062,-2.374 0,-1.311 0,0"
             style="fill:#000000;fill-opacity:1;fill-rule:nonzero;stroke:none"
             id="path1024" />
        </g>
        <g
           id="g1026"
           transform="translate(602.2812,295.5469)">
          <path
             d="m 0,0 c 0,-1.456 -1.181,-2.636 -2.636,-2.636 -1.456,0 -2.635,1.18 -2.635,2.636 0,1.456 1.179,2.636 2.635,2.636 C -1.181,2.636 0,1.456 0,0"
             style="fill:#000000;fill-opacity:1;fill-rule:nonzero;stroke:none"
             id="path1028" />
        </g>
        <g
           id="g1030"
           transform="translate(677.958,271.1592)">
          <path
             d="m 0,0 c 0,-1.813 -1.47,-3.283 -3.282,-3.283 -1.813,0 -3.282,1.47 -3.282,3.283 0,1.813 1.469,3.282 3.282,3.282 C -1.47,3.282 0,1.813 0,0"
             style="fill:#000000;fill-opacity:1;fill-rule:nonzero;stroke:none"
             id="path1032" />
        </g>
        <g
           id="g1034"
           transform="translate(615.6846,440.2495)">
          <path
             d="m 0,0 c 0,-0.656 -0.532,-1.187 -1.187,-1.187 -0.656,0 -1.188,0.531 -1.188,1.187 0,0.656 0.532,1.187 1.188,1.187 C -0.532,1.187 0,0.656 0,0"
             style="fill:#000000;fill-opacity:1;fill-rule:nonzero;stroke:none"
             id="path1036" />
        </g>
        <g
           id="g1038"
           transform="translate(534.7334,314.0874)">
          <path
             d="m 0,0 c 0,-1.856 -1.504,-3.36 -3.36,-3.36 -1.856,0 -3.36,1.504 -3.36,3.36 0,1.855 1.504,3.36 3.36,3.36 C -1.504,3.36 0,1.855 0,0"
             style="fill:#000000;fill-opacity:1;fill-rule:nonzero;stroke:none"
             id="path1040" />
        </g>
        <g
           id="g1042"
           transform="translate(582.8545,466.8765)">
          <path
             d="m 0,0 c 0,-1.456 -1.181,-2.636 -2.636,-2.636 -1.456,0 -2.635,1.18 -2.635,2.636 0,1.456 1.179,2.636 2.635,2.636 C -1.181,2.636 0,1.456 0,0"
             style="fill:#000000;fill-opacity:1;fill-rule:nonzero;stroke:none"
             id="path1044" />
        </g>
        <g
           id="g1046"
           transform="translate(674.6758,507.2026)">
          <path
             d="M 0,0 -60.19,-66.829 0,-236.043 l -60.19,72.167 -14.84,-47.78 -68.273,18.541"
             style="fill:none;stroke:#000000;stroke-width:0.344;stroke-linecap:butt;stroke-linejoin:miter;stroke-miterlimit:10;stroke-dasharray:none;stroke-opacity:1"
             id="path1048" />
        </g>
        <g
           id="g1050"
           transform="translate(614.4854,440.374)">
          <path
             d="M 0,0 -7.196,77.992"
             style="fill:none;stroke:#000000;stroke-width:0.344;stroke-linecap:butt;stroke-linejoin:miter;stroke-miterlimit:10;stroke-dasharray:none;stroke-opacity:1"
             id="path1052" />
        </g>
        <g
           id="g1054"
           transform="translate(674.6758,271.1592)">
          <path
             d="M 0,0 78.717,76.916"
             style="fill:none;stroke:#000000;stroke-width:0.344;stroke-linecap:butt;stroke-linejoin:miter;stroke-miterlimit:10;stroke-dasharray:none;stroke-opacity:1"
             id="path1056" />
        </g>
        <g
           id="g1058"
           transform="translate(614.4854,440.374)">
          <path
             d="M 0,0 138.907,-92.299"
             style="fill:none;stroke:#000000;stroke-width:0.344;stroke-linecap:butt;stroke-linejoin:miter;stroke-miterlimit:10;stroke-dasharray:none;stroke-opacity:1"
             id="path1060" />
        </g>
        <g
           id="g1062"
           transform="translate(614.4854,343.3262)">
          <path
             d="M 0,0 V 97.048"
             style="fill:none;stroke:#000000;stroke-width:0.344;stroke-linecap:butt;stroke-linejoin:miter;stroke-miterlimit:10;stroke-dasharray:none;stroke-opacity:1"
             id="path1064" />
        </g>
        <g
           id="g1066"
           transform="translate(531.373,314.0874)">
          <path
             d="M 0,0 83.112,29.239"
             style="fill:none;stroke:#000000;stroke-width:0.344;stroke-linecap:butt;stroke-linejoin:miter;stroke-miterlimit:10;stroke-dasharray:none;stroke-opacity:1"
             id="path1068" />
        </g>
        <g
           id="g1094"
           transform="translate(674.6758,507.2026)">
          <path
             d="M 0,0 71.8,-99.779"
             style="fill:none;stroke:#000000;stroke-width:0.344;stroke-linecap:butt;stroke-linejoin:miter;stroke-miterlimit:10;stroke-dasharray:none;stroke-opacity:1"
             id="path1096" />
        </g>
      </g>
      <g
         id="g662"
         clip-path="url(#clipPath666)"
         style="display:inline;fill:#4c60e6;fill-opacity:1"
         transform="translate(-38.985014,-97.392062)">
        <g
           id="g820"
           transform="translate(555.7455,-78.4041)"
           style="fill:#4c60e6;fill-opacity:1" />
        <g
           id="g884"
           transform="translate(433.6275,571.8601)"
           style="fill:#4c60e6;fill-opacity:1" />
        <g
           id="g3180"
           style="fill:#4c60e6;fill-opacity:1">
          <g
             id="g3182"
             style="fill:#4c60e6;fill-opacity:1" />
          <g
             id="g3194"
             style="fill:#4c60e6;fill-opacity:1" />
        </g>
        <g
           id="g3196"
           transform="matrix(1,0,0,-1,0,367.5982)"
           style="fill:#4c60e6;fill-opacity:1">
          <g
             id="g3198"
             style="fill:#4c60e6;fill-opacity:1" />
          <g
             id="g3210"
             style="fill:#4c60e6;fill-opacity:1">
            <g
               clip-path="url(#clipPath3202)"
               opacity="0.800003"
               id="g3208"
               style="fill:#4c60e6;fill-opacity:1">
              <g
                 transform="translate(632.7126,183.7992)"
                 id="g3206"
                 style="fill:#4c60e6;fill-opacity:1" />
            </g>
          </g>
        </g>
      </g>
    </g>
    <g
       id="g780"
       transform="translate(110.19144,-96.849663)"
       style="display:inline">
      <g
         id="g782" />
      <g
         id="g794"
         style="opacity:0.767253;fill:#4c60e6;fill-opacity:1">
        <g
           clip-path="url(#clipPath786)"
           opacity="0.800003"
           id="g792"
           style="fill:#4c60e6;fill-opacity:1">
          <g
             transform="translate(524.4797,203.518)"
             id="g790"
             style="fill:#4c60e6;fill-opacity:1">
            <path
               d="M 0,0 32.35,18.677 64.699,0 V -37.354 L 32.35,-56.031 0,-37.354 Z"
               style="fill:#4c60e6;fill-opacity:1;fill-rule:nonzero;stroke:none"
               id="path788" />
          </g>
        </g>
      </g>
    </g>
    <g
       id="g764"
       style="display:inline;fill:#4c60e6;fill-opacity:1"
       transform="translate(-26.171519,-78.084741)">
      <g
         id="g766"
         style="fill:#4c60e6;fill-opacity:1" />
      <g
         id="g778"
         style="fill:#4c60e6;fill-opacity:1">
        <g
           clip-path="url(#clipPath770)"
           opacity="0.800003"
           id="g776"
           style="fill:#4c60e6;fill-opacity:1">
          <g
             transform="translate(155.9969,363.328)"
             id="g774"
             style="fill:#4c60e6;fill-opacity:1">
            <path
               d="M 0,0 103.05,59.496 206.099,0 V -118.991 L 103.05,-178.487 0,-118.991 Z"
               style="fill:#4c60e6;fill-opacity:1;fill-rule:nonzero;stroke:none"
               id="path772" />
          </g>
        </g>
      </g>
    </g>
  </g>
</svg>
